<?plantuml 1.2026.2?><svg xmlns="http://www.w3.org/2000/svg" xmlns:xlink="http://www.w3.org/1999/xlink" contentStyleType="text/css" data-diagram-type="DESCRIPTION" height="202px" preserveAspectRatio="none" style="width:497px;height:202px;background:#FFFFFF;" version="1.1" viewBox="0 0 497 202" width="497px" zoomAndPan="magnify"><defs/><g><!--entity pn--><g class="entity" data-qualified-name="pn" data-source-line="2" id="ent0002"><rect fill="#F1F1F1" height="62.9766" rx="2.5" ry="2.5" style="stroke:#181818;stroke-width:0.5;" width="136.0313" x="7" y="9.7622"/><rect fill="#F1F1F1" height="10" style="stroke:#181818;stroke-width:0.5;" width="15" x="123.0313" y="14.7622"/><rect fill="#F1F1F1" height="2" style="stroke:#181818;stroke-width:0.5;" width="4" x="121.0313" y="16.7622"/><rect fill="#F1F1F1" height="2" style="stroke:#181818;stroke-width:0.5;" width="4" x="121.0313" y="20.7622"/><text fill="#000000" font-family="sans-serif" font-size="14" lengthAdjust="spacing" textLength="96.0313" x="22" y="43.2973">Power Notifier</text><text fill="#000000" font-family="sans-serif" font-size="14" lengthAdjust="spacing" textLength="81.7305" x="22" y="59.7856">(Rust Tokio)</text></g><!--entity log--><g class="entity" data-qualified-name="log" data-source-line="3" id="ent0003"><rect fill="#F1F1F1" height="46.4883" rx="2.5" ry="2.5" style="stroke:#181818;stroke-width:0.5;" width="86.8467" x="31.59" y="149.7322"/><rect fill="#F1F1F1" height="10" style="stroke:#181818;stroke-width:0.5;" width="15" x="98.4367" y="154.7322"/><rect fill="#F1F1F1" height="2" style="stroke:#181818;stroke-width:0.5;" width="4" x="96.4367" y="156.7322"/><rect fill="#F1F1F1" height="2" style="stroke:#181818;stroke-width:0.5;" width="4" x="96.4367" y="160.7322"/><text fill="#000000" font-family="sans-serif" font-size="14" lengthAdjust="spacing" textLength="46.8467" x="46.59" y="183.2673">log file</text></g><!--entity ntfy.sh--><g class="entity" data-qualified-name="ntfy.sh" data-source-line="4" id="ent0004"><rect fill="#F1F1F1" height="46.4883" rx="2.5" ry="2.5" style="stroke:#181818;stroke-width:0.5;" width="86.6416" x="212.69" y="18.0022"/><rect fill="#F1F1F1" height="10" style="stroke:#181818;stroke-width:0.5;" width="15" x="279.3316" y="23.0022"/><rect fill="#F1F1F1" height="2" style="stroke:#181818;stroke-width:0.5;" width="4" x="277.3316" y="25.0022"/><rect fill="#F1F1F1" height="2" style="stroke:#181818;stroke-width:0.5;" width="4" x="277.3316" y="29.0022"/><text fill="#000000" font-family="sans-serif" font-size="14" lengthAdjust="spacing" textLength="46.6416" x="227.69" y="51.5373">ntfy.sh</text></g><!--entity phone--><g class="entity" data-qualified-name="phone" data-source-line="5" id="ent0005"><rect fill="#F1F1F1" height="46.4883" rx="2.5" ry="2.5" style="stroke:#181818;stroke-width:0.5;" width="82.5879" x="408.72" y="18.0022"/><rect fill="#F1F1F1" height="10" style="stroke:#181818;stroke-width:0.5;" width="15" x="471.3079" y="23.0022"/><rect fill="#F1F1F1" height="2" style="stroke:#181818;stroke-width:0.5;" width="4" x="469.3079" y="25.0022"/><rect fill="#F1F1F1" height="2" style="stroke:#181818;stroke-width:0.5;" width="4" x="469.3079" y="29.0022"/><text fill="#000000" font-family="sans-serif" font-size="14" lengthAdjust="spacing" textLength="42.5879" x="423.72" y="51.5373">phone</text></g><!--link pn to ntfy.sh--><g class="link" data-entity-1="ent0002" data-entity-2="ent0004" data-link-type="dependency" data-source-line="7" id="lnk6"><path d="M149.44,41.2422 C172.57,41.2422 185.74,41.2422 206.41,41.2422" fill="none" id="pn-ntfy.sh" style="stroke:#181818;stroke-width:1;"/><polygon fill="#181818" points="143.44,41.2422,152.44,45.2422,148.44,41.2422,152.44,37.2422,143.44,41.2422" style="stroke:#181818;stroke-width:1;"/><polygon fill="#181818" points="212.41,41.2422,203.41,37.2422,207.41,41.2422,203.41,45.2422,212.41,41.2422" style="stroke:#181818;stroke-width:1;"/><text fill="#000000" font-family="sans-serif" font-size="13" lengthAdjust="spacing" textLength="33.1792" x="161.36" y="19.8105">HTTP</text><text fill="#000000" font-family="sans-serif" font-size="13" lengthAdjust="spacing" textLength="32.5063" x="161.6964" y="35.1211">POST</text></g><!--link ntfy.sh to phone--><g class="link" data-entity-1="ent0004" data-entity-2="ent0005" data-link-type="dependency" data-source-line="8" id="lnk7"><path d="M299.55,41.2422 C332.06,41.2422 370.22,41.2422 402.29,41.2422" fill="none" id="ntfy.sh-to-phone" style="stroke:#181818;stroke-width:1;"/><polygon fill="#181818" points="408.29,41.2422,399.29,37.2422,403.29,41.2422,399.29,45.2422,408.29,41.2422" style="stroke:#181818;stroke-width:1;"/><text fill="#000000" font-family="sans-serif" font-size="13" lengthAdjust="spacing" textLength="29.9482" x="339.185" y="19.8105">Push</text><text fill="#000000" font-family="sans-serif" font-size="13" lengthAdjust="spacing" textLength="73.2583" x="317.53" y="35.1211">Notification</text></g><!--link pn to log--><g class="link" data-entity-1="ent0002" data-entity-2="ent0003" data-link-type="dependency" data-source-line="9" id="lnk8"><path d="M75.02,78.9922 C75.02,102.5222 75.02,122.4222 75.02,143.5722" fill="none" id="pn-log" style="stroke:#181818;stroke-width:1;"/><polygon fill="#181818" points="75.02,72.9922,71.02,81.9922,75.02,77.9922,79.02,81.9922,75.02,72.9922" style="stroke:#181818;stroke-width:1;"/><polygon fill="#181818" points="75.02,149.5722,79.02,140.5722,75.02,144.5722,71.02,140.5722,75.02,149.5722" style="stroke:#181818;stroke-width:1;"/><text fill="#000000" font-family="sans-serif" font-size="13" lengthAdjust="spacing" textLength="46.5029" x="76.02" y="116.3005">File I/O</text></g><?plantuml-src JOun3i8m34NtdCBg14DXhn0ZWeL6a35BLP8cejXHughYzeHMXKwM_t-sNaklG6YGeP0qcWXNOc-zYHetjo4nA7fwsXRG90WesZ_UKmVMzsQgyhBgaErxbzmg2IvF8GB2eOo-SrmU5megE2ibDShwhiGI_gZfCZDoI4xZRDSsx0ddRmyQCMDVcmfEsGSk-rfy0000?></g></svg>